<svg fill="#006699" xmlns="http://www.w3.org/2000/svg" xmlns:xlink="http://www.w3.org/1999/xlink" version="1.1" x="0px" y="0px" viewBox="0 0 50 50" enable-background="new 0 0 50 50" xml:space="preserve"><g><path fill-rule="evenodd" clip-rule="evenodd" d="M6.796,8.886c0.612,0,1.109,0.495,1.109,1.106c0,0.612-0.497,1.108-1.109,1.108   c-0.611,0-1.107-0.496-1.107-1.108C5.689,9.381,6.185,8.886,6.796,8.886 M32.614,37.399l-14.547,1.35l-7.307-4.404l2.484-2.626   c0.456-1.127,1.163-2.164,2.064-2.982l-0.112-1.266l-1.764,0.041l-6.228,6.586v6.509l10.053,6.03l15.343-1.786l12.423,1.35   L50,40.921l-0.001-7.953l-4.828-3.269l-0.241,1.959l0.033,1.22l1.653,1.119l-4.144,4.413L32.614,37.399z M33.033,27.052   l-6.972,0.159c-0.165,0.925-0.266,1.82-0.295,2.759l7.027-0.16c0.209-0.275,0.424-0.533,0.663-0.784L33.033,27.052z M36.715,3.363   c-1.576,0.141-3.142,0.314-4.713,0.495c-1.329,0.153-2.66,0.308-4.233,0.448l-7.434-0.93l-4.495,1.73l-5.485-0.05L7.886,4.473   L6.513,6.406L3.306,9.159l-0.192,1.596L0,14.072l2.517,3.299c3.542,0.409,7.081,0.845,10.619,1.285   c3.161,2.453,3.213,7.364,3.58,11.034c-1.909,1.318-2.333,2.92-2.929,4.97h10.393c-0.14-1.541-0.3-3.071-0.253-4.623   c0.031-1.035,0.156-2.095,0.402-3.365l0.909-2.728l8.878,0.71l0.526,2.456l0.58,2.705c-1.749,1.453-2.064,2.817-2.632,4.844h10.86   l-0.078-2.826c0.412-3.478,0.801-6.316,1.91-9.709c0.929-2.847,1.55-5.765,1.558-8.77l-2.41-6.242L36.715,3.363z"></path></g></svg>